<?xml version="1.0" encoding="utf-8"?>
<!-- Generator: Adobe Illustrator 16.0.0, SVG Export Plug-In . SVG Version: 6.00 Build 0)  -->
<!DOCTYPE svg PUBLIC "-//W3C//DTD SVG 1.1//EN" "http://www.w3.org/Graphics/SVG/1.1/DTD/svg11.dtd">
<svg version="1.1" id="Layer_1" xmlns="http://www.w3.org/2000/svg" xmlns:xlink="http://www.w3.org/1999/xlink" x="0px" y="0px"
	 width="1024px" height="1098.727px" viewBox="0 0 1024 1098.727" enable-background="new 0 0 1024 1098.727" xml:space="preserve">
<rect fill="#1755a2" width="1024.004" height="1098.727"/>
<radialGradient id="SVGID_1_" cx="528.6865" cy="916.2441" r="319.8501" gradientTransform="matrix(1 0 0 0.0718 0 850.4175)" gradientUnits="userSpaceOnUse">
	<stop  offset="0" style="stop-color:#000000"/>
	<stop  offset="0.8495" style="stop-color:#FFFFFF"/>
</radialGradient>
<ellipse opacity="0.6" fill="url(#SVGID_1_)" cx="528.687" cy="916.244" rx="450.313" ry="42.731"/>

<g id="XMLID_11865_">
	<g id="XMLID_11867_">
		<path id="XMLID_12443_" fill="#FFFFFF" d="M368.194,917.044h302.764c24.041,0,43.53-19.489,43.53-43.531V151.871
			c0-24.042-19.489-43.531-43.53-43.531H368.194c-24.041,0-43.53,19.49-43.53,43.531v721.642
			C324.664,897.555,344.153,917.044,368.194,917.044z"/>
		<rect id="XMLID_12442_" x="324.664" y="180.978" fill="#161922" width="389.824" height="663.429"/>
		<path id="XMLID_12440_" opacity="0.73" fill="#161922" d="M567.958,885.055h-96.764c-3.061,0-5.542-2.48-5.542-5.54l0,0
			c0-3.061,2.48-5.542,5.542-5.542h96.764c3.062,0,5.542,2.481,5.542,5.542l0,0C573.5,882.574,571.02,885.055,567.958,885.055z"/>
		<path fill="#161922" d="M587.081,153.641c0,1.697-1.375,3.072-3.072,3.072H455.143c-1.697,0-3.072-1.375-3.072-3.072l0,0
			c0-1.697,1.375-3.072,3.072-3.072h128.866C585.706,150.569,587.081,151.944,587.081,153.641L587.081,153.641z"/>
		<circle fill="#161922" cx="435.667" cy="153.641" r="3.072"/>
		<circle fill="#161922" cx="602.334" cy="153.641" r="3.072"/>
	</g>
	<g>
		<g>
			<path fill="#FFFFFF" d="M377.965,197.325c0-1.017,0.605-1.734,1.597-2.155l-0.012-0.038c-0.892-0.42-1.275-1.113-1.275-1.807
				c0-1.276,1.077-2.143,2.489-2.143c1.561,0,2.342,0.978,2.342,1.983c0,0.68-0.334,1.41-1.326,1.881v0.037
				c1.003,0.397,1.622,1.104,1.622,2.083c0,1.398-1.202,2.342-2.738,2.342C378.979,199.506,377.965,198.501,377.965,197.325z
				 M382.299,197.275c0-0.978-0.68-1.448-1.771-1.757c-0.942,0.271-1.45,0.89-1.45,1.658c-0.037,0.818,0.583,1.536,1.61,1.536
				C381.667,198.711,382.299,198.104,382.299,197.275z M379.302,193.248c0,0.806,0.607,1.24,1.536,1.488
				c0.693-0.234,1.227-0.731,1.227-1.461c0-0.646-0.384-1.314-1.362-1.314C379.797,191.96,379.302,192.556,379.302,193.248z"/>
			<path fill="#FFFFFF" d="M386.982,194.364c0-0.458,0.311-0.78,0.743-0.78c0.434,0,0.72,0.321,0.732,0.78
				c0,0.435-0.285,0.768-0.743,0.768C387.28,195.131,386.982,194.799,386.982,194.364z M386.982,198.738
				c0-0.458,0.311-0.782,0.743-0.782c0.434,0,0.72,0.323,0.732,0.782c0,0.432-0.285,0.768-0.743,0.768
				C387.28,199.506,386.982,199.17,386.982,198.738z"/>
			<path fill="#FFFFFF" d="M392.199,198.118c0.31,0.198,1.028,0.508,1.782,0.508c1.4,0,1.834-0.892,1.823-1.561
				c-0.013-1.127-1.03-1.61-2.083-1.61h-0.605v-0.817h0.605c0.793,0,1.798-0.409,1.798-1.363c0-0.646-0.409-1.214-1.414-1.214
				c-0.644,0-1.263,0.286-1.61,0.532l-0.284-0.792c0.422-0.31,1.24-0.619,2.107-0.619c1.585,0,2.304,0.939,2.304,1.92
				c0,0.831-0.497,1.536-1.486,1.895v0.025c0.989,0.198,1.796,0.941,1.796,2.068c0,1.288-1.003,2.417-2.937,2.417
				c-0.904,0-1.696-0.287-2.094-0.546L392.199,198.118z"/>
			<path fill="#FFFFFF" d="M406.122,195.255c0,2.738-1.015,4.251-2.799,4.251c-1.574,0-2.638-1.475-2.663-4.138
				c0-2.701,1.164-4.188,2.799-4.188C405.157,191.181,406.122,192.692,406.122,195.255z M401.749,195.379
				c0,2.094,0.644,3.283,1.635,3.283c1.116,0,1.649-1.299,1.649-3.357c0-1.981-0.508-3.282-1.635-3.282
				C402.442,192.023,401.749,193.187,401.749,195.379z"/>
		</g>
		<g>
			<g>
				<rect x="612.849" y="196.706" fill="#FFFFFF" width="3.035" height="4.975"/>
				<rect x="617.198" y="194.704" fill="#FFFFFF" width="3.038" height="6.977"/>
				<rect x="621.551" y="192.769" fill="#FFFFFF" width="3.038" height="8.912"/>
				<rect x="625.904" y="190.56" fill="#FFFFFF" width="3.035" height="11.12"/>
			</g>
			<g>
				<path fill="#FFFFFF" d="M635.559,196.213c1.745-1.705,4.125-2.759,6.763-2.759c2.631,0,5.011,1.054,6.763,2.759l2.048-2.044
					c-2.275-2.231-5.383-3.609-8.811-3.609s-6.537,1.377-8.813,3.609L635.559,196.213z"/>
				<path fill="#FFFFFF" d="M638.286,198.942c1.05-1.005,2.467-1.633,4.035-1.633c1.566,0,2.979,0.628,4.031,1.633l2.047-2.046
					c-1.574-1.526-3.714-2.479-6.078-2.479c-2.366,0-4.506,0.953-6.08,2.479L638.286,198.942z"/>
				<path fill="#FFFFFF" d="M641.022,201.68c0.35-0.305,0.798-0.512,1.299-0.512c0.499,0,0.947,0.207,1.299,0.512l2.052-2.056
					c-0.875-0.831-2.052-1.349-3.351-1.349c-1.304,0-2.476,0.518-3.355,1.349L641.022,201.68z"/>
			</g>
			<g>
				<path fill="#FFFFFF" d="M674.246,200.333h-18.37c-0.268,0-0.481-0.218-0.481-0.487v-7.455c0-0.267,0.214-0.485,0.481-0.485
					h18.37c0.268,0,0.486,0.218,0.486,0.485v7.455C674.732,200.116,674.514,200.333,674.246,200.333z"/>
				<path fill="#FFFFFF" d="M676.248,197.932h-0.58c-0.267,0-0.485-0.218-0.485-0.485v-2.656c0-0.267,0.219-0.485,0.485-0.485h0.58
					c0.271,0,0.485,0.218,0.485,0.485v2.656C676.733,197.714,676.519,197.932,676.248,197.932z"/>
			</g>
		</g>
	</g>
	<g>
		<path opacity="0.1" fill="#FFFFFF" d="M699.398,118.93c-7.049-6.091-16.068-9.959-25.976-10.514L324.664,758v115.513
			L699.398,118.93z"/>
		<path opacity="0.1" fill="#FFFFFF" d="M368.194,108.339c-24.041,0-43.53,19.49-43.53,43.531v29.107v205.283V702.25
			l298.521-593.911H368.194z"/>
	</g>
</g>
<g>
	<path opacity="0.3" fill="#3E82D7" d="M917.188,584.343h-297.78c-9.662,0-17.495,7.833-17.495,17.494v124.067
		c0,9.661,7.833,17.494,17.495,17.494h30.923c-1.795,13.658-4.145,33.249-2.855,33.249c1.372,0,16.379-20.61,25.451-33.249h244.262
		c9.662,0,17.494-7.833,17.494-17.494V601.837C934.683,592.176,926.851,584.343,917.188,584.343z"/>
	<g>
		<path fill="#5CB30B" d="M931.423,551.363H633.644c-9.662,0-17.494,7.833-17.494,17.495v124.066
			c0,9.662,7.832,17.495,17.494,17.495h30.923c-1.796,13.657-4.145,33.249-2.855,33.249c1.371,0,16.378-20.61,25.451-33.249h244.261
			c9.662,0,17.495-7.833,17.495-17.495V568.858C948.918,559.196,941.085,551.363,931.423,551.363z"/>
		<circle fill="#FFFFFF" cx="673.802" cy="631.331" r="43.857"/>
		<g>
			<rect x="667.864" y="653.431" fill="#F7C29E" width="12.878" height="12.857"/>
			<path fill="#F19A5E" d="M680.742,661.14v-7.709h-12.878v6.559C670.637,661.476,674.741,662.332,680.742,661.14z"/>
			<path fill="#F7C29E" d="M701.047,630.417c-1.344-0.662-2.903-0.544-4.315,0.17c0.485-12.687-9.878-23.357-22.93-22.906
				c-13.053-0.451-23.415,10.22-22.931,22.906c-1.411-0.714-2.971-0.832-4.314-0.17c-2.578,1.27-3.379,4.906-1.79,8.125
				c1.59,3.217,4.968,4.796,7.547,3.525c0.357-0.176,0.678-0.401,0.965-0.662c1.478,10.488,10.241,18.352,20.523,18.205
				c10.282,0.146,19.046-7.717,20.523-18.205c0.288,0.261,0.607,0.486,0.966,0.662c2.577,1.271,5.956-0.309,7.545-3.525
				C704.426,635.323,703.625,631.687,701.047,630.417z"/>
			<path fill="#FFFFFF" d="M682.229,645.403c-0.566,2.543-3.478,4.543-7.047,4.651c-3.568,0.108-6.598-1.708-7.317-4.212
				L682.229,645.403z"/>
			<path fill="#050505" d="M653.278,641.405c0,0-1.035-9.273,5.806-13.008s15.833-5.313,19.25-11.896c0,0-2.249,4.75-0.916,4.75
				s7.25-4.75,7.25-4.75s-6.129,6.499-2.439,5.833s6.355-7.083,6.355-7.083s7.251,14.914,6.334,19.707s-0.834,6.043-0.834,6.043
				s2.516-7.501,3.508-19.417s-3.09-22.75-17.674-24.25s-20.917,5.667-20.917,5.667s-0.313-3.438-1.876-3.813
				s-0.188,3.938-0.188,3.938s-4.055-1.5-3.715-0.313s3.84,1.188,3.84,1.188s-8.668,1.853-6.375,2.688s6.5-1.625,6.5-1.625
				s-12.07-4.264-6.316,25.524L653.278,641.405z"/>
		</g>
		<path fill="#FFFFFF" d="M903.686,594.738H736.375c-2,0-3.622-1.622-3.622-3.623v-0.377c0-2,1.622-3.621,3.622-3.621h167.311
			c2,0,3.622,1.621,3.622,3.621v0.377C907.308,593.116,905.686,594.738,903.686,594.738z"/>
		<path fill="#FFFFFF" d="M770.354,614.848h-33.979c-2,0-3.622-1.621-3.622-3.622v-0.377c0-2,1.622-3.621,3.622-3.621h33.979
			c2.001,0,3.622,1.621,3.622,3.621v0.377C773.977,613.227,772.355,614.848,770.354,614.848z"/>
		<path fill="#FFFFFF" d="M903.686,614.848h-110.53c-2,0-3.621-1.621-3.621-3.622v-0.377c0-2,1.621-3.621,3.621-3.621h110.53
			c2,0,3.622,1.621,3.622,3.621v0.377C907.308,613.227,905.686,614.848,903.686,614.848z"/>
		<path fill="#FFFFFF" d="M819.306,634.958h-82.931c-2,0-3.622-1.621-3.622-3.622v-0.377c0-2.001,1.622-3.622,3.622-3.622h82.931
			c2,0,3.622,1.621,3.622,3.622v0.377C822.928,633.337,821.306,634.958,819.306,634.958z"/>
		<path fill="#FFFFFF" d="M903.686,634.958H839.74c-2,0-3.622-1.621-3.622-3.622v-0.377c0-2.001,1.622-3.622,3.622-3.622h63.945
			c2,0,3.622,1.621,3.622,3.622v0.377C907.308,633.337,905.686,634.958,903.686,634.958z"/>
		<path fill="#FFFFFF" d="M903.686,655.068H736.375c-2,0-3.622-1.622-3.622-3.622v-0.377c0-2,1.622-3.623,3.622-3.623h167.311
			c2,0,3.622,1.623,3.622,3.623v0.377C907.308,653.446,905.686,655.068,903.686,655.068z"/>
	</g>
</g>
<g>
	<path opacity="0.3" fill="#3E82D7" d="M455.369,304.211H128.808c-11.28,0-20.425,9.144-20.425,20.424v134.764
		c0,11.28,9.145,20.424,20.425,20.424h257.1c10.405,14.52,29.271,40.521,30.937,40.521c1.559,0-1.442-24.559-3.558-40.521h42.083
		c11.28,0,20.424-9.144,20.424-20.424V324.635C475.793,313.355,466.648,304.211,455.369,304.211z"/>
	<path fill="#4385D8" d="M441.886,269.254H115.325c-11.28,0-20.424,9.144-20.424,20.424v134.765
		c0,11.279,9.144,20.423,20.424,20.423h257.101c10.405,14.52,29.271,40.521,30.936,40.521c1.56,0-1.443-24.559-3.558-40.521h42.083
		c11.279,0,20.424-9.144,20.424-20.423V289.678C462.31,278.398,453.165,269.254,441.886,269.254z"/>
	<circle fill="#FFFFFF" cx="164.989" cy="357.061" r="51.202"/>
	<path d="M164.988,408.262c11.147,0,21.454-3.573,29.861-9.622c-2.116-3.438-3.686-7.563-3.016-11.746
		c1.667-10.395,4.846-14.228,2.006-19.561s-0.506-8.5-1.173-14.5s-7.708-17.806-8.182-18.817s-8.501-2.359-9.66-3.021l-33.802,3.021
		c0,0-7.52,11.021-3.023,25.738s0.39,17.299-0.722,23.105s-2.355,8.307,1.517,13.473c1.089,1.454,1.41,3.382,1.265,5.448
		C147.438,405.904,155.936,408.262,164.988,408.262z"/>
	<path d="M138.336,358.406c0,0-7.586-17.762,6.914-30.906c12.084-10.954,25.799-8.871,34.625-4.375
		c12.234,6.231,16.575,24.622,12.661,33.936l-32.473-8.156L138.336,358.406z"/>
	<g>
		<rect x="158.056" y="382.86" fill="#F7C29E" width="15.035" height="15.01"/>
		<path fill="#F19A5E" d="M173.09,391.859v-8.999h-15.035v7.656C161.292,392.252,166.085,393.252,173.09,391.859z"/>
		<path fill="#F7C29E" d="M196.796,355.993c-1.568-0.773-3.39-0.635-5.038,0.199c0.566-14.811-11.532-27.27-26.77-26.743
			c-15.238-0.526-27.336,11.932-26.77,26.743c-1.648-0.834-3.469-0.972-5.038-0.199c-3.01,1.482-3.945,5.728-2.089,9.484
			c1.856,3.756,5.8,5.6,8.81,4.118c0.418-0.206,0.791-0.47,1.127-0.773c1.725,12.245,11.956,21.424,23.96,21.254
			c12.004,0.17,22.235-9.009,23.96-21.254c0.336,0.304,0.709,0.568,1.127,0.773c3.009,1.482,6.954-0.362,8.81-4.118
			C200.741,361.721,199.805,357.475,196.796,355.993z"/>
		<path fill="#FFFFFF" d="M174.826,373.489c-0.661,2.969-4.06,5.302-8.226,5.43c-4.167,0.127-7.702-1.994-8.544-4.917
			L174.826,373.489z"/>
	</g>
	<path d="M138.218,356.192c0,0,34.003-5.912,42.615-15.864c0,0-2.5,7.088-9,11.588c0.574,0.383,15.575-0.524,18.167-9.083
		c2.591-8.559-25.012-17.738-25.012-17.738s-7.572,3.222-7.956,3.414c-0.383,0.191-7.485,1.02-8.299,2.832
		c-1.06,2.358-6.074,2.566-6.074,2.566l-3.166,6.588l-2.215,6.93L138.218,356.192z"/>
	<path fill="#FFFFFF" d="M290.539,321.846h-60.136c-2.335,0-4.229-1.894-4.229-4.229v-0.44c0-2.335,1.893-4.228,4.229-4.228h60.136
		c2.335,0,4.229,1.893,4.229,4.228v0.44C294.768,319.953,292.875,321.846,290.539,321.846z"/>
	<path fill="#FFFFFF" d="M268.279,345.324h-37.876c-2.335,0-4.229-1.893-4.229-4.228v-0.441c0-2.335,1.893-4.228,4.229-4.228h37.876
		c2.335,0,4.229,1.893,4.229,4.228v0.441C272.508,343.431,270.615,345.324,268.279,345.324z"/>
	<path fill="#FFFFFF" d="M333.286,345.324h-48.56c-2.335,0-4.229-1.893-4.229-4.228v-0.441c0-2.335,1.893-4.228,4.229-4.228h48.56
		c2.336,0,4.229,1.893,4.229,4.228v0.441C337.515,343.431,335.622,345.324,333.286,345.324z"/>
	<path fill="#FFFFFF" d="M418.138,345.324h-68.405c-2.335,0-4.229-1.893-4.229-4.228v-0.441c0-2.335,1.893-4.228,4.229-4.228h68.405
		c2.335,0,4.228,1.893,4.228,4.228v0.441C422.366,343.431,420.473,345.324,418.138,345.324z"/>
	<path fill="#FFFFFF" d="M418.138,321.846H310.363c-2.336,0-4.229-1.894-4.229-4.229v-0.44c0-2.335,1.893-4.228,4.229-4.228h107.775
		c2.335,0,4.228,1.893,4.228,4.228v0.44C422.366,319.953,420.473,321.846,418.138,321.846z"/>
	<path fill="#FFFFFF" d="M418.138,391.343H230.403c-2.335,0-4.229-1.893-4.229-4.228v-0.44c0-2.336,1.893-4.229,4.229-4.229h187.735
		c2.335,0,4.228,1.893,4.228,4.229v0.44C422.366,389.45,420.473,391.343,418.138,391.343z"/>
	<path fill="#FFFFFF" d="M323.299,368.801h-92.896c-2.335,0-4.229-1.893-4.229-4.228v-0.441c0-2.334,1.893-4.229,4.229-4.229h92.896
		c2.335,0,4.229,1.894,4.229,4.229v0.441C327.527,366.908,325.634,368.801,323.299,368.801z"/>
	<path fill="#FFFFFF" d="M418.138,368.801h-71.557c-2.335,0-4.229-1.893-4.229-4.228v-0.441c0-2.334,1.894-4.229,4.229-4.229h71.557
		c2.335,0,4.228,1.894,4.228,4.229v0.441C422.366,366.908,420.473,368.801,418.138,368.801z"/>
</g>
</svg>
